<?xml version="1.0" encoding="utf-8"?>
<!-- Generator: Adobe Illustrator 13.0.0, SVG Export Plug-In . SVG Version: 6.00 Build 14948)  -->
<!DOCTYPE svg PUBLIC "-//W3C//DTD SVG 1.1//EN" "http://www.w3.org/Graphics/SVG/1.1/DTD/svg11.dtd">
<svg version="1.1" id="Layer_1" xmlns="http://www.w3.org/2000/svg" xmlns:xlink="http://www.w3.org/1999/xlink" x="0px" y="0px"
	 width="552.003px" height="44.666px" viewBox="0 0 552.003 44.666" enable-background="new 0 0 552.003 44.666"
	 xml:space="preserve">
<g>
	<path fill="#FFFFFF" d="M38.4,4.485c1.187-2.242,2.177-4.026,4.882-4.026c0.921,0,2.046,0.197,2.771,1.121
		c0.462,0.594,0.793,1.388,0.99,3.43l2.97,34.178c0.066,0.728,0.197,1.784,0.197,2.442c0,1.519-0.99,2.508-3.498,2.508
		c-2.508,0-3.629-0.989-3.76-2.97l-2.046-27.444L28.7,38.001c-0.924,1.914-1.518,3.298-3.695,3.298c-1.98,0-2.639-1.317-3.563-3.298
		L9.367,13.655L7.059,41.168c-0.131,1.918-1.056,2.97-3.695,2.97C0.99,44.138,0,43.214,0,41.499c0-0.462,0.065-1.19,0.197-2.111
		L3.429,4.879c0.134-1.318,0.331-2.636,1.19-3.43c0.525-0.527,1.449-0.99,2.836-0.99c2.705,0,3.629,1.584,4.882,4.026l12.934,25.86
		L38.4,4.485L38.4,4.485z"/>
	<path fill="#FFFFFF" d="M89.007,35.03c2.308-2.836,2.308-6.53,2.308-9.366V4.62c0-1.256,0-2.181,0.531-2.908
		c0.593-0.722,1.58-1.121,3.098-1.121c1.518,0,2.508,0.399,3.102,1.121c0.527,0.728,0.527,1.652,0.527,2.908v20.582
		c0,4.156,0,9.566-3.892,13.985c-2.904,3.367-7.521,5.409-14.517,5.409c-7.39,0-11.744-2.242-14.514-5.409
		c-3.895-4.419-3.895-9.301-3.895-13.985V4.62c0-1.256,0-2.181,0.531-2.908c0.593-0.722,1.58-1.121,3.167-1.121
		c1.515,0,2.504,0.399,3.098,1.121c0.528,0.728,0.528,1.652,0.528,2.908v21.044c0,2.836,0,6.53,2.311,9.366
		c1.846,2.181,4.816,3.367,8.842,3.367C84.256,38.397,87.161,37.211,89.007,35.03L89.007,35.03z"/>
	<path fill="#FFFFFF" d="M127.676,20.648c3.76,2.311,6.862,5.74,6.862,11.28c0,8.118-6.6,12.537-13.989,12.537
		c-2.967,0-6.596-0.79-9.17-2.242c-1.783-0.99-3.167-2.377-3.167-3.961c0-1.583,1.252-3.494,2.967-3.494
		c2.246,0,4.292,3.494,9.173,3.494c3.957,0,6.861-2.242,6.861-6.002c0-3.695-2.773-5.538-5.544-6.993
		c-3.891-2.043-12.402-5.082-12.402-13.527c0-6.927,5.672-11.547,13.393-11.547c5.609,0,11.019,2.574,11.019,5.479
		c0,1.449-1.318,3.433-3.036,3.433c-2.046,0-4.092-2.708-8.049-2.708c-3.629,0-6.003,2.046-6.003,4.95
		C116.592,16.163,123.123,17.878,127.676,20.648L127.676,20.648z"/>
	<path fill="#FFFFFF" d="M151.757,40.047c0,1.252,0,2.242-0.528,2.967c-0.593,0.728-1.583,1.124-3.098,1.124
		c-1.587,0-2.574-0.396-3.167-1.124c-0.531-0.725-0.531-1.715-0.531-2.967V4.62c0-1.256,0-2.181,0.531-2.908
		c0.593-0.722,1.58-1.121,3.167-1.121c1.515,0,2.504,0.399,3.098,1.121c0.528,0.728,0.528,1.652,0.528,2.908V40.047L151.757,40.047z
		"/>
	<path fill="#FFFFFF" d="M183.758,38.066c2.177,0,4.288-0.462,6.203-1.252c2.572-1.056,3.629-2.108,4.882-2.108
		c1.849,0,2.903,2.174,2.903,3.557c0,1.388-1.054,2.443-2.643,3.437c-3.098,1.911-7.453,2.832-11.476,2.832
		c-11.481,0-21.707-7.521-21.707-22.428c0-14.913,10.291-21.976,21.707-21.976c4.289,0,8.445,0.993,11.476,2.84
		c1.72,1.055,2.643,2.042,2.643,3.429s-1.054,3.695-2.903,3.695c-1.252,0-2.508-1.056-5.083-2.108
		c-1.91-0.793-3.824-1.391-6.398-1.391c-6.927,0-13.92,4.292-13.92,15.308C169.44,32.919,176.434,38.066,183.758,38.066
		L183.758,38.066z"/>
	<path fill="#FFFFFF" d="M244.198,38.066c2.178,0,4.288-0.462,6.205-1.252c2.572-1.056,3.629-2.108,4.881-2.108
		c1.849,0,2.903,2.174,2.903,3.557c0,1.388-1.054,2.443-2.641,3.437c-3.1,1.911-7.457,2.832-11.478,2.832
		c-11.483,0-21.708-7.521-21.708-22.428c0-14.913,10.292-21.976,21.708-21.976c4.287,0,8.445,0.993,11.478,2.84
		c1.718,1.055,2.641,2.042,2.641,3.429s-1.054,3.695-2.903,3.695c-1.252,0-2.508-1.056-5.083-2.108
		c-1.91-0.793-3.825-1.391-6.398-1.391c-6.926,0-13.922,4.292-13.922,15.308C229.881,32.919,236.877,38.066,244.198,38.066
		L244.198,38.066z"/>
	<path fill="#FFFFFF" d="M275.408,40.047c0,1.252,0,2.242-0.529,2.967c-0.592,0.728-1.584,1.124-3.097,1.124
		c-1.589,0-2.575-0.396-3.167-1.124c-0.533-0.725-0.533-1.715-0.533-2.967V4.62c0-1.256,0-2.181,0.533-2.908
		c0.592-0.722,1.578-1.121,3.167-1.121c1.513,0,2.505,0.399,3.097,1.121c0.529,0.728,0.529,1.652,0.529,2.908V40.047L275.408,40.047
		z"/>
	<path fill="#FFFFFF" d="M304.9,40.047c0,1.252,0,2.177-0.527,2.904c-0.594,0.725-1.715,1.187-3.102,1.187
		c-1.449,0-2.574-0.462-3.168-1.187c-0.527-0.728-0.527-1.652-0.527-2.904V7.518h-10.16c-1.121,0-1.91,0-2.639-0.527
		c-0.658-0.463-1.121-1.318-1.121-2.705s0.463-2.174,1.121-2.639c0.729-0.525,1.518-0.594,2.639-0.594h27.713
		c1.057,0,1.846,0.068,2.57,0.594c0.662,0.465,1.125,1.252,1.125,2.639s-0.463,2.242-1.125,2.705
		c-0.725,0.527-1.514,0.527-2.57,0.527H304.9V40.047L304.9,40.047z"/>
	<path fill="#FFFFFF" d="M351.089,3.889c1.123-1.911,2.043-3.298,5.213-3.298c2.443,0,3.299,0.858,3.299,2.045
		c0,0.859-0.465,1.649-1.188,2.771l-13.92,21.973v12.668c0,1.252-0.068,2.242-0.596,2.967c-0.594,0.728-1.516,1.124-3.1,1.124
		c-1.52,0-2.51-0.396-3.102-1.124c-0.527-0.725-0.527-1.649-0.527-2.901V27.379l-13.461-21.77c-0.725-1.255-1.188-2.049-1.188-2.907
		c0-1.318,1.188-2.111,3.631-2.111c2.969,0,4.021,1.187,5.277,3.363l9.633,16.562L351.089,3.889L351.089,3.889z"/>
	<path fill="#FFFFFF" d="M404.863,38.066c2.178,0,4.289-0.462,6.203-1.252c2.574-1.056,3.629-2.108,4.879-2.108
		c1.852,0,2.908,2.174,2.908,3.557c0,1.388-1.057,2.443-2.646,3.437c-3.094,1.911-7.451,2.832-11.475,2.832
		c-11.48,0-21.707-7.521-21.707-22.428c0-14.913,10.291-21.976,21.707-21.976c4.289,0,8.445,0.993,11.475,2.84
		c1.721,1.055,2.646,2.042,2.646,3.429s-1.057,3.695-2.908,3.695c-1.25,0-2.504-1.056-5.078-2.108
		c-1.912-0.793-3.826-1.391-6.402-1.391c-6.926,0-13.918,4.292-13.918,15.308C390.546,32.919,397.539,38.066,404.863,38.066
		L404.863,38.066z"/>
	<path fill="#FFFFFF" d="M447.49,38.463c9.105,0,14.648-5.937,14.648-16.034c0-10.292-5.676-16.229-14.779-16.229
		c-9.107,0-14.652,5.937-14.652,16.031C432.707,32.526,438.386,38.463,447.49,38.463L447.49,38.463z M447.552,0
		c13.531,0,22.104,9.498,22.104,22.231c0,12.999-8.838,22.435-22.365,22.435c-13.523,0-22.1-9.501-22.1-22.237
		C425.191,9.433,434.029,0,447.552,0L447.552,0z"/>
	<path fill="#FFFFFF" d="M487.078,37.67c0,0,1.98,0.266,5.016,0.266c5.537,0,18.078-0.794,18.078-15.438
		c0-6.266-2.309-10.229-5.281-12.537c-2.969-2.311-6.793-3.167-12.203-3.167c-3.564,0-5.609,0.397-5.609,0.397V37.67L487.078,37.67z
		 M509.05,39.847c-5.148,3.367-11.613,4.291-18.209,4.291c-3.764,0-6.996-0.331-8.842-0.989c-1.914-0.663-2.246-1.784-2.246-3.961
		V5.609c0-2.511,0.596-3.698,3.697-4.36c1.979-0.39,5.145-0.658,8.971-0.658c6.596,0,12.537,0.924,17.223,4.156
		c4.484,3.105,8.047,8.577,8.047,17.356C517.691,31.536,513.535,36.88,509.05,39.847L509.05,39.847z"/>
	<path fill="#FFFFFF" d="M534.98,17.678h9.176c1.055,0,1.846,0.069,2.566,0.597c0.666,0.459,1.121,1.252,1.121,2.639
		c0,1.384-0.455,2.243-1.121,2.705c-0.721,0.528-1.512,0.528-2.566,0.528h-9.176v13.13h13.33c1.055,0,1.848,0.065,2.572,0.594
		c0.662,0.465,1.121,1.252,1.121,2.639c0,1.384-0.459,2.242-1.121,2.705c-0.725,0.527-1.518,0.527-2.572,0.527h-17.023
		c-2.639,0-3.498-1.056-3.498-3.498V4.551c0-2.573,0.99-3.498,3.498-3.498h15.305c1.059,0,1.852,0.068,2.576,0.594
		c0.66,0.465,1.121,1.252,1.121,2.639s-0.461,2.242-1.121,2.705c-0.725,0.527-1.518,0.527-2.576,0.527H534.98V17.678L534.98,17.678z
		"/>
</g>
</svg>
