<?xml version="1.0" encoding="utf-8"?>
<!-- Generator: Adobe Illustrator 13.0.0, SVG Export Plug-In  -->
<!DOCTYPE svg PUBLIC "-//W3C//DTD SVG 1.1//EN" "http://www.w3.org/Graphics/SVG/1.1/DTD/svg11.dtd" [
	<!ENTITY ns_flows "http://ns.adobe.com/Flows/1.0/">
]>
<svg version="1.1"
	 xmlns="http://www.w3.org/2000/svg" xmlns:xlink="http://www.w3.org/1999/xlink" xmlns:a="http://ns.adobe.com/AdobeSVGViewerExtensions/3.0/"
	 x="0px" y="0px" width="579px" height="251px" viewBox="-0.255 -0.31 579 251" enable-background="new -0.255 -0.31 579 251"
	 xml:space="preserve">
<defs>
</defs>
<path fill="#FFFFFF" d="M308.143,0.001h-2.765c-0.396,0-0.781,0.159-1.06,0.439c-0.281,0.278-0.441,0.666-0.441,1.06v4.27
	c0,0.394,0.16,0.781,0.441,1.06c0.278,0.28,0.663,0.439,1.06,0.439h2.765c0.4,0,0.777-0.157,1.06-0.439
	c0.285-0.283,0.441-0.66,0.441-1.06V1.5c0-0.394-0.16-0.782-0.438-1.06C308.924,0.16,308.536,0.001,308.143,0.001z"/>
<path fill="#FFFFFF" d="M308.143,47.565H243.63c-0.396,0-0.782,0.159-1.06,0.439c-0.28,0.278-0.439,0.664-0.439,1.06v4.271
	c0,0.396,0.159,0.781,0.439,1.062c0.278,0.278,0.666,0.439,1.06,0.439h64.513c0.394,0,0.781-0.161,1.062-0.439
	c0.278-0.281,0.438-0.668,0.438-1.062v-4.271c0-0.394-0.16-0.781-0.438-1.06C308.924,47.725,308.536,47.565,308.143,47.565z"/>
<path fill="#FFFFFF" d="M308.143,35.687H243.63c-0.396,0-0.782,0.161-1.06,0.439c-0.28,0.281-0.439,0.666-0.439,1.062v4.27
	c0,0.394,0.159,0.78,0.439,1.06c0.278,0.278,0.666,0.439,1.06,0.439h64.513c0.394,0,0.781-0.161,1.062-0.439
	c0.278-0.28,0.438-0.666,0.438-1.06v-4.27c0-0.396-0.16-0.781-0.438-1.062C308.924,35.848,308.536,35.687,308.143,35.687z"/>
<path fill="#FFFFFF" d="M308.143,23.808H243.63c-0.396,0-0.782,0.161-1.06,0.439c-0.28,0.28-0.439,0.666-0.439,1.062v4.269
	c0,0.396,0.159,0.781,0.439,1.062c0.278,0.278,0.666,0.439,1.06,0.439h64.513c0.394,0,0.781-0.161,1.062-0.439
	c0.278-0.28,0.438-0.666,0.438-1.062v-4.269c0-0.396-0.16-0.781-0.438-1.06C308.924,23.969,308.536,23.808,308.143,23.808z"/>
<path fill="#FFFFFF" d="M243.629,19.149h10.174c0.402,0,0.778-0.156,1.061-0.44c0.283-0.283,0.44-0.66,0.44-1.059v-4.271
	c0-0.396-0.162-0.782-0.44-1.061c-0.278-0.278-0.666-0.438-1.061-0.438h-10.174c-0.393,0-0.78,0.16-1.059,0.438
	c-0.281,0.279-0.44,0.666-0.44,1.061v4.271c0,0.394,0.16,0.781,0.44,1.059C242.849,18.99,243.236,19.149,243.629,19.149z"/>
<path fill="#FFFFFF" d="M243.63,7.269h2.767c0.395,0,0.782-0.16,1.06-0.438c0.28-0.28,0.44-0.667,0.44-1.062V1.502
	c0-0.395-0.16-0.782-0.44-1.062c-0.278-0.278-0.666-0.44-1.06-0.44h-2.767c-0.395,0-0.782,0.162-1.06,0.44
	c-0.28,0.28-0.44,0.665-0.44,1.062v4.267c0,0.395,0.16,0.782,0.44,1.062C242.848,7.109,243.235,7.269,243.63,7.269z"/>
<path fill="#FFFFFF" d="M308.143,11.88h-10.176c-0.396,0-0.781,0.159-1.06,0.437c-0.28,0.281-0.441,0.666-0.441,1.062v4.271
	c0,0.396,0.161,0.781,0.441,1.062c0.278,0.278,0.664,0.438,1.06,0.438h10.176c0.4,0,0.777-0.155,1.06-0.439
	c0.285-0.282,0.441-0.66,0.441-1.06v-4.271c0-0.396-0.16-0.781-0.438-1.062C308.924,12.039,308.536,11.88,308.143,11.88z"/>
<path fill="#FFFFFF" d="M308.143,95.076H243.63c-0.396,0-0.782,0.161-1.06,0.441c-0.28,0.278-0.439,0.664-0.439,1.06v4.27
	c0,0.396,0.159,0.782,0.439,1.062c0.278,0.278,0.666,0.439,1.06,0.439h64.513c0.394,0,0.781-0.161,1.062-0.439
	c0.278-0.28,0.438-0.666,0.438-1.062v-4.27c0-0.394-0.16-0.782-0.438-1.06C308.924,95.237,308.536,95.076,308.143,95.076z"/>
<path fill="#FFFFFF" d="M308.143,83.2H243.63c-0.396,0-0.782,0.161-1.06,0.439c-0.28,0.278-0.439,0.666-0.439,1.062v4.271
	c0,0.394,0.159,0.781,0.439,1.06c0.278,0.281,0.666,0.439,1.06,0.439h64.513c0.394,0,0.781-0.159,1.062-0.439
	c0.278-0.278,0.438-0.666,0.438-1.06v-4.271c0-0.396-0.16-0.781-0.438-1.062C308.924,83.36,308.536,83.2,308.143,83.2z"/>
<path fill="#FFFFFF" d="M308.143,71.321H243.63c-0.396,0-0.782,0.161-1.06,0.441c-0.28,0.278-0.439,0.664-0.439,1.06v4.268
	c0,0.396,0.159,0.781,0.439,1.062c0.278,0.278,0.666,0.439,1.06,0.439h64.513c0.394,0,0.781-0.161,1.062-0.439
	c0.278-0.281,0.438-0.666,0.438-1.062v-4.268c0-0.394-0.16-0.782-0.438-1.06C308.924,71.482,308.536,71.321,308.143,71.321z"/>
<path fill="#FFFFFF" d="M308.143,59.444H243.63c-0.396,0-0.782,0.161-1.06,0.439c-0.28,0.279-0.439,0.666-0.439,1.062v4.268
	c0,0.394,0.159,0.782,0.439,1.06c0.278,0.28,0.666,0.439,1.06,0.439h64.513c0.394,0,0.781-0.159,1.062-0.439
	c0.278-0.278,0.438-0.666,0.438-1.06v-4.268c0-0.396-0.16-0.781-0.438-1.062C308.924,59.605,308.536,59.444,308.143,59.444z"/>
<path fill="#FFFFFF" d="M308.143,106.957H243.63c-0.396,0-0.782,0.161-1.06,0.439c-0.28,0.28-0.439,0.666-0.439,1.062v4.269
	c0,0.396,0.159,0.781,0.439,1.06c0.278,0.281,0.666,0.439,1.06,0.439h64.513c0.394,0,0.781-0.159,1.062-0.439
	c0.278-0.278,0.438-0.666,0.438-1.06v-4.269c0-0.396-0.16-0.781-0.438-1.062C308.924,107.118,308.536,106.957,308.143,106.957z"/>
<path fill="#FFFFFF" d="M243.63,149.863h64.513c0.4,0,0.777-0.156,1.06-0.44c0.285-0.283,0.439-0.66,0.439-1.061v-4.271
	c0-0.396-0.158-0.782-0.439-1.061c-0.278-0.28-0.664-0.441-1.06-0.441H243.63c-0.396,0-0.782,0.161-1.06,0.441
	c-0.28,0.278-0.439,0.664-0.439,1.061v4.271c0,0.396,0.159,0.781,0.439,1.061C242.848,149.703,243.236,149.863,243.63,149.863z"/>
<path fill="#FFFFFF" d="M308.143,130.712H243.63c-0.396,0-0.782,0.161-1.06,0.441c-0.28,0.278-0.439,0.664-0.439,1.06v4.269
	c0,0.396,0.159,0.781,0.439,1.062c0.278,0.279,0.666,0.439,1.06,0.439h64.513c0.394,0,0.781-0.16,1.062-0.439
	c0.278-0.28,0.438-0.666,0.438-1.062v-4.269c0-0.396-0.16-0.781-0.438-1.06C308.924,130.873,308.536,130.712,308.143,130.712z"/>
<path fill="#FFFFFF" d="M308.144,178.228h-64.513c-0.396,0-0.783,0.161-1.062,0.438c-0.279,0.28-0.439,0.667-0.439,1.063v4.267
	c0,0.396,0.162,0.782,0.441,1.06c0.277,0.28,0.665,0.441,1.06,0.441h64.513c0.394,0,0.781-0.161,1.061-0.441
	c0.277-0.277,0.439-0.664,0.439-1.06v-4.267c0-0.396-0.162-0.783-0.439-1.063C308.925,178.389,308.537,178.228,308.144,178.228z"/>
<path fill="#FFFFFF" d="M308.144,166.346H243.63c-0.395,0-0.782,0.159-1.061,0.441c-0.279,0.278-0.441,0.663-0.441,1.059v4.272
	c0,0.396,0.162,0.782,0.441,1.062c0.279,0.279,0.666,0.438,1.061,0.438h64.513c0.394,0,0.78-0.159,1.06-0.438
	c0.278-0.279,0.44-0.666,0.44-1.062v-4.272c0-0.396-0.162-0.78-0.44-1.059C308.924,166.505,308.537,166.346,308.144,166.346z"/>
<path fill="#FFFFFF" d="M243.63,161.741h64.513c0.395,0,0.78-0.161,1.06-0.439c0.28-0.279,0.439-0.667,0.439-1.062v-4.269
	c0-0.395-0.159-0.781-0.439-1.06c-0.279-0.279-0.665-0.44-1.06-0.44H243.63c-0.396,0-0.783,0.161-1.062,0.44
	c-0.279,0.278-0.44,0.665-0.44,1.06v4.269c0,0.395,0.161,0.782,0.44,1.062C242.85,161.58,243.236,161.741,243.63,161.741z"/>
<path fill="#FFFFFF" d="M308.143,118.836H243.63c-0.396,0-0.782,0.159-1.06,0.439c-0.28,0.278-0.439,0.666-0.439,1.06v4.27
	c0,0.396,0.159,0.782,0.439,1.06c0.278,0.28,0.666,0.441,1.06,0.441h64.513c0.4,0,0.777-0.157,1.06-0.441
	c0.285-0.283,0.441-0.66,0.441-1.06v-4.27c0-0.394-0.16-0.782-0.438-1.06C308.924,118.997,308.536,118.836,308.143,118.836z"/>
<path fill="#FFFFFF" d="M410.799,47.565h-22.745c-0.396,0-0.781,0.161-1.061,0.438c-0.28,0.28-0.44,0.666-0.44,1.062v4.27
	c0,0.395,0.16,0.781,0.44,1.061c0.279,0.28,0.664,0.438,1.061,0.438h22.745c0.395,0,0.781-0.159,1.061-0.438
	c0.28-0.28,0.44-0.666,0.44-1.061v-4.27c0-0.396-0.16-0.783-0.44-1.061C411.58,47.726,411.193,47.565,410.799,47.565z"/>
<path fill="#FFFFFF" d="M410.799,95.076h-22.745c-0.396,0-0.781,0.161-1.061,0.441c-0.28,0.28-0.44,0.666-0.44,1.061v4.271
	c0,0.395,0.16,0.781,0.44,1.061c0.279,0.28,0.664,0.438,1.061,0.438h22.745c0.395,0,0.781-0.159,1.061-0.438
	c0.28-0.279,0.44-0.666,0.44-1.061v-4.271c0-0.395-0.16-0.781-0.44-1.061C411.58,95.237,411.193,95.076,410.799,95.076z"/>
<path fill="#FFFFFF" d="M410.799,83.2h-22.745c-0.396,0-0.781,0.161-1.061,0.438c-0.28,0.28-0.44,0.666-0.44,1.062v4.269
	c0,0.395,0.16,0.783,0.44,1.061c0.279,0.28,0.664,0.441,1.061,0.441h22.745c0.395,0,0.781-0.161,1.061-0.441
	c0.28-0.28,0.44-0.666,0.44-1.061v-4.269c0-0.396-0.16-0.783-0.44-1.061C411.58,83.36,411.193,83.2,410.799,83.2z"/>
<path fill="#FFFFFF" d="M410.799,71.323h-22.745c-0.396,0-0.781,0.159-1.061,0.438c-0.28,0.28-0.44,0.666-0.44,1.061v4.269
	c0,0.395,0.16,0.781,0.44,1.061c0.279,0.28,0.664,0.441,1.061,0.441h22.745c0.395,0,0.781-0.161,1.061-0.441
	c0.28-0.28,0.44-0.666,0.44-1.061v-4.269c0-0.395-0.16-0.781-0.44-1.061C411.58,71.483,411.193,71.323,410.799,71.323z"/>
<path fill="#FFFFFF" d="M410.799,59.444h-22.745c-0.396,0-0.781,0.161-1.061,0.44c-0.28,0.278-0.44,0.664-0.44,1.061v4.267
	c0,0.397,0.16,0.783,0.44,1.061c0.279,0.28,0.664,0.441,1.061,0.441h22.745c0.395,0,0.781-0.161,1.061-0.441
	c0.28-0.277,0.44-0.666,0.44-1.061v-4.267c0-0.395-0.16-0.781-0.44-1.061C411.58,59.604,411.193,59.444,410.799,59.444z"/>
<path fill="#FFFFFF" d="M410.799,106.958h-22.745c-0.396,0-0.781,0.161-1.061,0.438c-0.28,0.28-0.44,0.666-0.44,1.062v4.267
	c0,0.397,0.16,0.783,0.44,1.061c0.279,0.28,0.664,0.44,1.061,0.44h22.745c0.395,0,0.781-0.161,1.061-0.44
	c0.28-0.277,0.44-0.666,0.44-1.061v-4.267c0-0.396-0.16-0.783-0.44-1.061C411.58,107.118,411.193,106.958,410.799,106.958z"/>
<path fill="#FFFFFF" d="M388.053,149.862H410.8c0.398,0,0.776-0.156,1.061-0.44c0.282-0.282,0.438-0.658,0.438-1.059v-4.271
	c0-0.396-0.161-0.781-0.438-1.061c-0.279-0.279-0.666-0.44-1.061-0.44h-22.747c-0.395,0-0.781,0.161-1.061,0.44
	c-0.28,0.279-0.438,0.664-0.438,1.061v4.271c0,0.395,0.158,0.78,0.438,1.061C387.271,149.703,387.658,149.862,388.053,149.862z"/>
<path fill="#FFFFFF" d="M410.799,130.713h-22.745c-0.396,0-0.783,0.158-1.062,0.438c-0.278,0.279-0.438,0.666-0.438,1.062v4.268
	c0,0.395,0.16,0.782,0.44,1.061c0.279,0.279,0.664,0.44,1.061,0.44h22.745c0.395,0,0.781-0.161,1.061-0.44
	c0.28-0.278,0.44-0.666,0.44-1.061v-4.268c0-0.396-0.16-0.78-0.44-1.061C411.58,130.874,411.193,130.713,410.799,130.713z"/>
<path fill="#FFFFFF" d="M410.799,178.227h-22.745c-0.396,0-0.783,0.161-1.062,0.44c-0.278,0.279-0.438,0.666-0.438,1.061v4.27
	c0,0.395,0.16,0.78,0.44,1.061c0.279,0.279,0.664,0.438,1.061,0.438h22.745c0.395,0,0.781-0.159,1.061-0.438
	c0.28-0.28,0.44-0.666,0.44-1.061v-4.27c0-0.395-0.16-0.781-0.44-1.061C411.58,178.388,411.193,178.227,410.799,178.227z"/>
<path fill="#FFFFFF" d="M410.799,166.346h-22.745c-0.396,0-0.783,0.16-1.062,0.438c-0.278,0.279-0.438,0.666-0.438,1.062v4.271
	c0,0.395,0.16,0.782,0.44,1.061c0.279,0.279,0.664,0.44,1.061,0.44h22.745c0.395,0,0.781-0.161,1.061-0.44
	c0.28-0.278,0.44-0.666,0.44-1.061v-4.271c0-0.396-0.16-0.781-0.44-1.061C411.58,166.506,411.193,166.346,410.799,166.346z"/>
<path fill="#FFFFFF" d="M410.799,154.471h-22.745c-0.396,0-0.783,0.161-1.062,0.44c-0.278,0.28-0.438,0.666-0.438,1.061v4.27
	c0,0.395,0.16,0.78,0.44,1.061c0.279,0.279,0.664,0.438,1.061,0.438h22.745c0.395,0,0.781-0.159,1.061-0.438
	c0.28-0.28,0.44-0.666,0.44-1.061v-4.27c0-0.395-0.16-0.78-0.44-1.061C411.58,154.632,411.193,154.471,410.799,154.471z"/>
<path fill="#FFFFFF" d="M410.799,118.834h-22.745c-0.396,0-0.781,0.161-1.061,0.44c-0.28,0.28-0.44,0.666-0.44,1.061v4.271
	c0,0.395,0.16,0.781,0.44,1.061c0.279,0.279,0.664,0.438,1.061,0.438h22.745c0.401,0,0.776-0.156,1.061-0.44
	c0.284-0.282,0.44-0.66,0.44-1.059v-4.271c0-0.395-0.16-0.781-0.44-1.061C411.58,118.995,411.193,118.834,410.799,118.834z"/>
<path fill="#FFFFFF" d="M417.878,102.349h66.862c0.396,0,0.781-0.16,1.062-0.44c0.278-0.28,0.438-0.666,0.438-1.062v-4.27
	c0-0.396-0.159-0.781-0.438-1.062c-0.28-0.278-0.666-0.44-1.062-0.44h-66.862c-0.396,0-0.782,0.16-1.062,0.44
	c-0.278,0.28-0.44,0.666-0.44,1.062v4.27c0,0.396,0.162,0.783,0.44,1.062C417.096,102.189,417.481,102.349,417.878,102.349z"/>
<path fill="#FFFFFF" d="M417.878,90.47h66.862c0.396,0,0.781-0.16,1.062-0.438c0.278-0.28,0.438-0.668,0.438-1.062v-4.271
	c0-0.394-0.159-0.779-0.438-1.06c-0.28-0.28-0.666-0.44-1.062-0.44h-66.862c-0.396,0-0.782,0.16-1.062,0.44
	c-0.278,0.278-0.44,0.666-0.44,1.06v4.271c0,0.396,0.162,0.781,0.44,1.062C417.096,90.31,417.481,90.47,417.878,90.47z"/>
<path fill="#FFFFFF" d="M417.878,114.227h66.862c0.396,0,0.781-0.16,1.062-0.44c0.278-0.278,0.438-0.666,0.438-1.06v-4.269
	c0-0.394-0.159-0.782-0.438-1.06c-0.28-0.28-0.666-0.44-1.062-0.44h-66.862c-0.396,0-0.782,0.16-1.062,0.438
	c-0.278,0.28-0.44,0.666-0.44,1.062v4.269c0,0.394,0.162,0.782,0.44,1.06C417.096,114.066,417.481,114.227,417.878,114.227z"/>
<path fill="#FFFFFF" d="M484.741,142.59h-66.865c-0.394,0-0.781,0.162-1.059,0.44c-0.28,0.28-0.44,0.665-0.44,1.062v4.271
	c0,0.394,0.16,0.781,0.44,1.06c0.277,0.279,0.665,0.439,1.059,0.439h66.865c0.4,0,0.777-0.155,1.06-0.439
	c0.284-0.285,0.439-0.659,0.439-1.06v-4.271c0-0.396-0.159-0.781-0.439-1.062C485.522,142.752,485.135,142.59,484.741,142.59z"/>
<path fill="#FFFFFF" d="M417.878,137.982h66.862c0.396,0,0.781-0.16,1.062-0.44c0.278-0.277,0.438-0.665,0.438-1.06v-4.269
	c0-0.396-0.159-0.782-0.438-1.062c-0.28-0.278-0.666-0.44-1.062-0.44h-66.862c-0.396,0-0.782,0.16-1.062,0.44
	c-0.28,0.279-0.44,0.665-0.44,1.062v4.269c0,0.395,0.162,0.782,0.44,1.06C417.096,137.822,417.481,137.982,417.878,137.982z"/>
<path fill="#FFFFFF" d="M484.74,178.227h-66.862c-0.396,0-0.782,0.16-1.062,0.44c-0.28,0.279-0.44,0.665-0.44,1.062v4.269
	c0,0.395,0.162,0.782,0.44,1.06c0.279,0.28,0.665,0.44,1.062,0.44h66.862c0.396,0,0.781-0.16,1.062-0.44
	c0.278-0.277,0.438-0.665,0.438-1.06v-4.269c0-0.396-0.159-0.782-0.438-1.062C485.521,178.389,485.136,178.227,484.74,178.227z"/>
<path fill="#FFFFFF" d="M484.74,166.345h-66.862c-0.396,0-0.782,0.16-1.062,0.44c-0.28,0.278-0.44,0.666-0.44,1.062v4.271
	c0,0.396,0.162,0.781,0.44,1.062c0.279,0.278,0.665,0.438,1.062,0.438h66.862c0.396,0,0.781-0.16,1.062-0.438
	c0.278-0.28,0.438-0.665,0.438-1.062v-4.271c0-0.396-0.159-0.781-0.438-1.062C485.521,166.507,485.136,166.345,484.74,166.345z"/>
<path fill="#FFFFFF" d="M484.74,154.473h-66.862c-0.396,0-0.782,0.159-1.062,0.438c-0.28,0.28-0.44,0.666-0.44,1.062v4.27
	c0,0.394,0.162,0.781,0.44,1.06c0.279,0.28,0.665,0.44,1.062,0.44h66.862c0.396,0,0.781-0.16,1.062-0.44
	c0.278-0.278,0.438-0.666,0.438-1.06v-4.27c0-0.396-0.159-0.781-0.438-1.06C485.521,154.632,485.136,154.473,484.74,154.473z"/>
<path fill="#FFFFFF" d="M417.878,126.105h66.862c0.4,0,0.777-0.156,1.06-0.44c0.284-0.282,0.439-0.659,0.439-1.059v-4.27
	c0-0.396-0.159-0.781-0.438-1.062c-0.28-0.28-0.666-0.44-1.062-0.44h-66.862c-0.396,0-0.782,0.16-1.062,0.44
	c-0.278,0.278-0.44,0.666-0.44,1.062v4.27c0,0.394,0.162,0.781,0.44,1.061C417.096,125.945,417.481,126.105,417.878,126.105z"/>
<path fill="#FFFFFF" d="M577.976,143.03c-0.28-0.278-0.666-0.44-1.061-0.44h-24.168c-0.396,0-0.783,0.162-1.062,0.44
	c-0.279,0.279-0.438,0.665-0.438,1.061v4.271c0,0.395,0.159,0.782,0.438,1.061c0.279,0.279,0.666,0.438,1.062,0.438h24.168
	c0.4,0,0.777-0.155,1.061-0.438s0.439-0.66,0.439-1.061v-4.271C578.415,143.695,578.255,143.31,577.976,143.03z"/>
<path fill="#FFFFFF" d="M576.914,178.228h-24.169c-0.394,0-0.781,0.16-1.06,0.438c-0.279,0.279-0.439,0.667-0.439,1.062v4.268
	c0,0.394,0.16,0.781,0.439,1.061c0.28,0.279,0.666,0.44,1.06,0.44h24.169c0.396,0,0.781-0.161,1.061-0.44
	c0.281-0.279,0.44-0.667,0.44-1.061v-4.268c0-0.396-0.159-0.781-0.44-1.06C577.695,178.388,577.31,178.228,576.914,178.228z"/>
<path fill="#FFFFFF" d="M576.914,166.346h-24.169c-0.394,0-0.781,0.16-1.06,0.438c-0.279,0.279-0.439,0.667-0.439,1.062v4.271
	c0,0.395,0.16,0.782,0.439,1.061c0.28,0.279,0.666,0.438,1.06,0.438h24.169c0.396,0,0.781-0.159,1.061-0.438
	c0.281-0.278,0.44-0.666,0.44-1.061v-4.271c0-0.396-0.159-0.781-0.44-1.061C577.695,166.506,577.31,166.346,576.914,166.346z"/>
<path fill="#FFFFFF" d="M576.914,154.471h-24.169c-0.394,0-0.781,0.161-1.06,0.44c-0.279,0.279-0.439,0.666-0.439,1.061v4.27
	c0,0.394,0.16,0.781,0.439,1.061c0.28,0.278,0.666,0.438,1.06,0.438h24.169c0.396,0,0.781-0.16,1.061-0.438
	c0.281-0.279,0.44-0.667,0.44-1.061v-4.27c0-0.395-0.159-0.781-0.44-1.061C577.695,154.632,577.31,154.471,576.914,154.471z"/>
<path fill="#FFFFFF" d="M492.459,149.863h53.108c0.4,0,0.776-0.157,1.061-0.441c0.282-0.282,0.438-0.66,0.438-1.059v-4.272
	c0-0.395-0.159-0.781-0.438-1.061c-0.28-0.278-0.666-0.439-1.061-0.439h-53.108c-0.395,0-0.782,0.161-1.061,0.439
	c-0.28,0.279-0.439,0.666-0.439,1.061v4.272c0,0.395,0.159,0.78,0.439,1.061C491.677,149.702,492.064,149.863,492.459,149.863z"/>
<path fill="#FFFFFF" d="M545.565,130.714H492.46c-0.396,0-0.782,0.158-1.062,0.438c-0.278,0.278-0.439,0.666-0.439,1.061v4.269
	c0,0.395,0.161,0.781,0.441,1.062c0.278,0.279,0.664,0.438,1.061,0.438h53.105c0.396,0,0.783-0.159,1.062-0.438
	c0.279-0.28,0.441-0.667,0.441-1.062v-4.269c0-0.395-0.162-0.78-0.441-1.061C546.349,130.872,545.961,130.714,545.565,130.714z"/>
<path fill="#FFFFFF" d="M545.565,178.227H492.46c-0.396,0-0.782,0.161-1.062,0.439c-0.278,0.28-0.439,0.666-0.439,1.062v4.269
	c0,0.395,0.161,0.781,0.441,1.061c0.278,0.278,0.664,0.439,1.061,0.439h53.105c0.396,0,0.783-0.161,1.062-0.439
	c0.279-0.279,0.441-0.666,0.441-1.061v-4.269c0-0.396-0.162-0.782-0.441-1.061C546.349,178.388,545.961,178.227,545.565,178.227z"/>
<path fill="#FFFFFF" d="M545.565,166.347H492.46c-0.396,0-0.782,0.158-1.062,0.438c-0.278,0.278-0.439,0.666-0.439,1.061v4.273
	c0,0.395,0.161,0.78,0.441,1.061c0.278,0.277,0.664,0.439,1.061,0.439h53.105c0.396,0,0.783-0.162,1.062-0.439
	c0.279-0.28,0.441-0.666,0.441-1.061v-4.273c0-0.395-0.162-0.78-0.441-1.061C546.349,166.505,545.961,166.347,545.565,166.347z"/>
<path fill="#FFFFFF" d="M545.565,154.472H492.46c-0.396,0-0.782,0.159-1.062,0.439c-0.278,0.278-0.439,0.666-0.439,1.061v4.269
	c0,0.395,0.161,0.781,0.441,1.062c0.278,0.279,0.664,0.438,1.061,0.438h53.105c0.396,0,0.783-0.159,1.062-0.438
	c0.279-0.28,0.441-0.667,0.441-1.062v-4.269c0-0.395-0.162-0.78-0.441-1.061C546.349,154.631,545.961,154.472,545.565,154.472z"/>
<path fill="#FFFFFF" d="M545.565,118.835H492.46c-0.396,0-0.782,0.159-1.061,0.439c-0.28,0.28-0.441,0.666-0.441,1.061v4.271
	c0,0.394,0.161,0.781,0.441,1.06c0.278,0.28,0.664,0.439,1.061,0.439h53.105c0.401,0,0.777-0.157,1.062-0.439
	c0.284-0.284,0.441-0.661,0.441-1.06v-4.271c0-0.395-0.162-0.781-0.441-1.061C546.349,118.997,545.961,118.835,545.565,118.835z"/>
<path fill="#FFFFFF" d="M380.356,95.078h-64.519c-0.395,0-0.779,0.16-1.061,0.439c-0.278,0.279-0.441,0.666-0.441,1.061v4.27
	c0,0.396,0.163,0.782,0.441,1.061c0.281,0.279,0.666,0.439,1.061,0.439h64.519c0.394,0,0.78-0.16,1.06-0.439
	c0.28-0.279,0.44-0.666,0.44-1.061v-4.27c0-0.396-0.16-0.782-0.44-1.061C381.137,95.238,380.75,95.078,380.356,95.078z"/>
<path fill="#FFFFFF" d="M380.356,83.199h-64.519c-0.395,0-0.779,0.16-1.061,0.439c-0.278,0.281-0.441,0.666-0.441,1.062v4.271
	c0,0.395,0.163,0.78,0.441,1.061c0.281,0.278,0.666,0.438,1.061,0.438h64.519c0.394,0,0.78-0.16,1.06-0.438
	c0.28-0.281,0.44-0.668,0.44-1.061v-4.271c0-0.395-0.16-0.782-0.44-1.061C381.137,83.359,380.75,83.199,380.356,83.199z"/>
<path fill="#FFFFFF" d="M339.517,78.592h38.071c0.396,0,0.782-0.16,1.061-0.441c0.28-0.279,0.44-0.666,0.44-1.061v-4.267
	c0-0.395-0.16-0.782-0.44-1.06c-0.278-0.281-0.665-0.441-1.061-0.441h-38.071c-0.395,0-0.779,0.16-1.06,0.438
	c-0.279,0.281-0.439,0.666-0.439,1.062v4.267c0,0.395,0.16,0.782,0.439,1.061C338.737,78.432,339.122,78.592,339.517,78.592z"/>
<path fill="#FFFFFF" d="M351.001,66.713h4.671c0.4,0,0.777-0.156,1.06-0.44c0.284-0.282,0.441-0.66,0.441-1.06v-4.268
	c0-0.396-0.161-0.782-0.439-1.062c-0.28-0.28-0.666-0.439-1.062-0.439h-4.671c-0.396,0-0.781,0.16-1.062,0.439
	c-0.277,0.278-0.439,0.666-0.439,1.062v4.268c0,0.394,0.162,0.782,0.439,1.062C350.22,66.553,350.605,66.713,351.001,66.713z"/>
<path fill="#FFFFFF" d="M362.39,66.713h4.667c0.4,0,0.776-0.156,1.061-0.44c0.283-0.282,0.44-0.66,0.44-1.059v-4.27
	c0-0.395-0.159-0.781-0.44-1.062c-0.277-0.278-0.666-0.438-1.061-0.438h-4.667c-0.396,0-0.782,0.16-1.061,0.438
	c-0.28,0.281-0.44,0.667-0.44,1.062v4.27c0,0.395,0.16,0.781,0.44,1.061C361.607,66.553,361.993,66.713,362.39,66.713z"/>
<path fill="#FFFFFF" d="M380.356,106.958h-64.519c-0.395,0-0.779,0.16-1.061,0.438c-0.278,0.281-0.441,0.666-0.441,1.061v4.271
	c0,0.393,0.163,0.78,0.441,1.059c0.281,0.281,0.666,0.441,1.061,0.441h64.519c0.394,0,0.78-0.16,1.06-0.441
	c0.28-0.279,0.44-0.666,0.44-1.059v-4.271c0-0.395-0.16-0.78-0.44-1.061C381.137,107.118,380.75,106.958,380.356,106.958z"/>
<path fill="#FFFFFF" d="M380.356,149.863c0.399,0,0.778-0.157,1.061-0.44c0.283-0.283,0.438-0.659,0.438-1.061v-4.271
	c0-0.396-0.158-0.782-0.438-1.062c-0.28-0.278-0.667-0.44-1.061-0.44h-64.519c-0.396,0-0.782,0.162-1.062,0.44
	c-0.278,0.279-0.438,0.666-0.438,1.062v4.271c0,0.395,0.16,0.781,0.438,1.061c0.279,0.28,0.666,0.44,1.062,0.44H380.356z"/>
<path fill="#FFFFFF" d="M380.356,130.713h-64.519c-0.395,0-0.782,0.16-1.061,0.439c-0.281,0.278-0.441,0.665-0.441,1.061v4.269
	c0,0.395,0.163,0.782,0.441,1.061c0.281,0.281,0.666,0.441,1.061,0.441h64.519c0.394,0,0.78-0.16,1.06-0.441
	c0.28-0.278,0.44-0.666,0.44-1.061v-4.269c0-0.396-0.16-0.78-0.44-1.061C381.137,130.873,380.75,130.713,380.356,130.713z"/>
<path fill="#FFFFFF" d="M380.356,178.228h-64.519c-0.395,0-0.782,0.16-1.061,0.439c-0.281,0.278-0.441,0.665-0.441,1.061v4.268
	c0,0.396,0.163,0.782,0.441,1.062c0.281,0.28,0.666,0.44,1.061,0.44h64.519c0.394,0,0.78-0.16,1.06-0.44
	c0.28-0.279,0.44-0.666,0.44-1.062v-4.268c0-0.396-0.16-0.78-0.44-1.061C381.137,178.388,380.75,178.228,380.356,178.228z"/>
<path fill="#FFFFFF" d="M380.356,166.345h-64.519c-0.395,0-0.782,0.16-1.061,0.44c-0.281,0.279-0.441,0.666-0.441,1.061v4.272
	c0,0.396,0.163,0.782,0.441,1.062c0.281,0.278,0.666,0.438,1.061,0.438h64.519c0.394,0,0.78-0.16,1.06-0.438
	c0.28-0.279,0.44-0.666,0.44-1.062v-4.272c0-0.395-0.16-0.781-0.44-1.061C381.137,166.507,380.75,166.345,380.356,166.345z"/>
<path fill="#FFFFFF" d="M380.356,154.472h-64.519c-0.395,0-0.782,0.16-1.061,0.438c-0.281,0.279-0.441,0.666-0.441,1.061v4.271
	c0,0.394,0.163,0.78,0.441,1.059c0.281,0.281,0.666,0.441,1.061,0.441h64.519c0.394,0,0.78-0.16,1.06-0.441
	c0.28-0.278,0.44-0.665,0.44-1.059v-4.271c0-0.395-0.16-0.779-0.44-1.059C381.137,154.632,380.75,154.472,380.356,154.472z"/>
<path fill="#FFFFFF" d="M380.356,118.834h-64.519c-0.395,0-0.779,0.16-1.061,0.441c-0.278,0.279-0.441,0.666-0.441,1.061v4.271
	c0,0.395,0.163,0.78,0.441,1.061c0.281,0.278,0.666,0.438,1.061,0.438h64.519c0.399,0,0.776-0.157,1.06-0.44
	c0.284-0.283,0.44-0.659,0.44-1.059v-4.271c0-0.395-0.16-0.782-0.44-1.061C381.137,118.997,380.75,118.834,380.356,118.834z"/>
<path fill="#FFFFFF" d="M69.804,142.59H29.718c-0.396,0-0.784,0.161-1.062,0.441c-0.278,0.278-0.439,0.664-0.439,1.061v4.271
	c0,0.396,0.161,0.781,0.439,1.061c0.281,0.28,0.666,0.44,1.062,0.44h40.086c0.4,0,0.777-0.156,1.06-0.44
	c0.282-0.283,0.439-0.66,0.439-1.061v-4.271c0-0.396-0.159-0.782-0.439-1.061C70.585,142.751,70.198,142.59,69.804,142.59z"/>
<path fill="#FFFFFF" d="M29.717,137.982h40.085c0.396,0,0.781-0.16,1.061-0.44c0.28-0.278,0.439-0.665,0.439-1.061v-4.269
	c0-0.396-0.159-0.781-0.439-1.061c-0.278-0.278-0.665-0.439-1.061-0.439H29.717c-0.396,0-0.782,0.161-1.061,0.439
	c-0.28,0.279-0.44,0.665-0.44,1.061v4.269c0,0.396,0.161,0.782,0.44,1.061C28.935,137.822,29.322,137.982,29.717,137.982z"/>
<path fill="#FFFFFF" d="M69.803,178.228H29.717c-0.396,0-0.783,0.161-1.061,0.438c-0.28,0.28-0.441,0.667-0.441,1.063v4.267
	c0,0.396,0.161,0.782,0.441,1.06c0.28,0.28,0.665,0.441,1.061,0.441h40.085c0.396,0,0.781-0.161,1.061-0.441
	c0.28-0.277,0.439-0.664,0.439-1.06v-4.267c0-0.396-0.159-0.783-0.439-1.063C70.584,178.389,70.199,178.228,69.803,178.228z"/>
<path fill="#FFFFFF" d="M69.802,166.346H29.716c-0.395,0-0.782,0.159-1.061,0.441c-0.279,0.278-0.438,0.663-0.438,1.059v4.272
	c0,0.396,0.159,0.782,0.438,1.062c0.279,0.279,0.666,0.438,1.061,0.438h40.086c0.395,0,0.782-0.159,1.061-0.438
	s0.44-0.666,0.44-1.062v-4.272c0-0.396-0.161-0.78-0.44-1.059C70.584,166.505,70.197,166.346,69.802,166.346z"/>
<path fill="#FFFFFF" d="M29.717,161.741h40.086c0.395,0,0.781-0.161,1.062-0.439c0.279-0.279,0.438-0.667,0.438-1.062v-4.269
	c0-0.395-0.159-0.781-0.438-1.06c-0.279-0.279-0.667-0.44-1.062-0.44H29.717c-0.395,0-0.78,0.161-1.062,0.44
	c-0.279,0.278-0.44,0.665-0.44,1.06v4.269c0,0.395,0.161,0.782,0.442,1.062C28.937,161.58,29.322,161.741,29.717,161.741z"/>
<path fill="#FFFFFF" d="M1.5,149.863h20.401c0.4,0,0.778-0.156,1.06-0.44c0.283-0.283,0.439-0.66,0.439-1.061v-4.271
	c0-0.396-0.159-0.782-0.439-1.061c-0.278-0.28-0.666-0.441-1.06-0.441H1.5c-0.394,0-0.782,0.161-1.06,0.441
	c-0.279,0.278-0.439,0.664-0.439,1.061v4.271c0,0.396,0.161,0.781,0.439,1.061C0.719,149.703,1.106,149.863,1.5,149.863z"/>
<path fill="#FFFFFF" d="M21.9,178.228H1.501c-0.396,0-0.783,0.161-1.061,0.438C0.162,178.946,0,179.333,0,179.729v4.267
	c0,0.396,0.162,0.782,0.441,1.06c0.28,0.28,0.665,0.441,1.061,0.441H21.9c0.396,0,0.783-0.161,1.062-0.441
	c0.278-0.277,0.439-0.664,0.439-1.06v-4.267c0-0.396-0.162-0.783-0.439-1.063C22.684,178.389,22.296,178.228,21.9,178.228z"/>
<path fill="#FFFFFF" d="M21.901,166.346H1.502c-0.397,0-0.782,0.159-1.061,0.441C0.16,167.065,0,167.45,0,167.846v4.272
	c0,0.396,0.162,0.782,0.44,1.062c0.279,0.279,0.666,0.438,1.061,0.438h20.399c0.395,0,0.782-0.159,1.061-0.438
	s0.44-0.666,0.44-1.062v-4.272c0-0.396-0.161-0.78-0.44-1.059C22.683,166.505,22.296,166.346,21.901,166.346z"/>
<path fill="#FFFFFF" d="M1.502,161.741h20.4c0.394,0,0.78-0.161,1.059-0.439c0.281-0.279,0.44-0.667,0.44-1.062v-4.269
	c0-0.395-0.159-0.781-0.44-1.06c-0.279-0.279-0.665-0.44-1.059-0.44h-20.4c-0.396,0-0.783,0.161-1.062,0.44
	C0.162,155.19,0,155.577,0,155.972v4.269c0,0.395,0.161,0.782,0.44,1.062C0.719,161.58,1.105,161.741,1.502,161.741z"/>
<path fill="#FFFFFF" d="M107.398,54.834h6.168c0.394,0,0.781-0.159,1.06-0.438s0.44-0.667,0.44-1.062v-4.269
	c0-0.396-0.161-0.783-0.44-1.062s-0.665-0.438-1.06-0.438h-6.168c-0.396,0-0.781,0.159-1.06,0.438s-0.44,0.667-0.44,1.062v4.269
	c0,0.395,0.161,0.783,0.44,1.062S107.004,54.834,107.398,54.834z"/>
<path fill="#FFFFFF" d="M113.566,35.687h-6.167c-0.395,0-0.782,0.161-1.061,0.439c-0.281,0.279-0.44,0.666-0.44,1.061v4.27
	c0,0.395,0.161,0.782,0.44,1.061c0.279,0.281,0.666,0.439,1.061,0.439h6.167c0.395,0,0.782-0.159,1.061-0.439
	c0.279-0.279,0.439-0.666,0.439-1.061v-4.27c0-0.395-0.161-0.78-0.439-1.061C114.348,35.847,113.961,35.687,113.566,35.687z"/>
<path fill="#FFFFFF" d="M107.399,31.079h6.167c0.394,0,0.78-0.161,1.061-0.441c0.279-0.279,0.439-0.665,0.439-1.059v-4.27
	c0-0.395-0.16-0.781-0.439-1.059c-0.28-0.28-0.667-0.441-1.061-0.441h-6.167c-0.396,0-0.783,0.161-1.061,0.439
	c-0.28,0.28-0.441,0.667-0.441,1.061v4.27c0,0.395,0.161,0.78,0.441,1.059C106.617,30.918,107.003,31.079,107.399,31.079z"/>
<path fill="#FFFFFF" d="M76.959,102.347h64.515c0.394,0,0.781-0.16,1.06-0.438s0.438-0.667,0.438-1.06v-4.271
	c0-0.396-0.16-0.781-0.438-1.06c-0.279-0.279-0.667-0.44-1.06-0.44H76.959c-0.396,0-0.783,0.16-1.062,0.44
	c-0.279,0.279-0.438,0.665-0.438,1.06v4.271c0,0.396,0.16,0.781,0.438,1.06C76.178,102.188,76.563,102.347,76.959,102.347z"/>
<path fill="#FFFFFF" d="M76.959,90.47h64.516c0.393,0,0.78-0.16,1.06-0.438c0.279-0.28,0.438-0.667,0.438-1.061v-4.271
	c0-0.395-0.16-0.782-0.438-1.061c-0.28-0.28-0.667-0.44-1.06-0.44H76.959c-0.396,0-0.782,0.16-1.063,0.438
	c-0.278,0.28-0.438,0.665-0.438,1.062v4.271c0,0.393,0.16,0.78,0.44,1.061C76.177,90.311,76.563,90.47,76.959,90.47z"/>
<path fill="#FFFFFF" d="M89.37,78.591h41.59c0.4,0,0.777-0.156,1.059-0.44c0.284-0.282,0.44-0.66,0.44-1.061v-4.269
	c0-0.395-0.16-0.781-0.44-1.061c-0.278-0.278-0.664-0.438-1.059-0.438H89.37c-0.395,0-0.781,0.16-1.059,0.438
	c-0.28,0.28-0.441,0.667-0.441,1.061v4.269c0,0.395,0.161,0.783,0.441,1.061C88.588,78.432,88.975,78.591,89.37,78.591z"/>
<path fill="#FFFFFF" d="M89.371,66.713h41.589c0.4,0,0.776-0.157,1.06-0.439c0.284-0.284,0.439-0.662,0.439-1.062v-4.269
	c0-0.394-0.159-0.782-0.439-1.062c-0.28-0.278-0.666-0.439-1.06-0.439H89.371c-0.396,0-0.782,0.161-1.062,0.439
	c-0.28,0.28-0.439,0.666-0.439,1.062v4.269c0,0.396,0.159,0.782,0.439,1.062S88.975,66.713,89.371,66.713z"/>
<path fill="#FFFFFF" d="M141.473,106.957H76.958c-0.396,0-0.782,0.16-1.062,0.439s-0.439,0.665-0.439,1.062v4.269
	c0,0.395,0.16,0.78,0.439,1.06s0.666,0.439,1.062,0.439h64.515c0.394,0,0.782-0.16,1.062-0.439s0.439-0.665,0.439-1.06v-4.269
	c0-0.395-0.16-0.782-0.439-1.062S141.87,106.957,141.473,106.957z"/>
<path fill="#FFFFFF" d="M76.958,142.59c-0.394,0-0.782,0.161-1.06,0.441c-0.28,0.278-0.439,0.664-0.439,1.061v4.271
	c0,0.396,0.159,0.781,0.439,1.061c0.278,0.28,0.666,0.44,1.06,0.44h64.515c0.4,0,0.777-0.156,1.062-0.44
	c0.283-0.283,0.438-0.66,0.438-1.061v-4.271c0-0.396-0.159-0.782-0.438-1.061c-0.28-0.28-0.666-0.441-1.062-0.441H76.958z"/>
<path fill="#FFFFFF" d="M76.959,137.982h64.514c0.396,0,0.781-0.16,1.061-0.44c0.28-0.278,0.439-0.665,0.439-1.061v-4.269
	c0-0.396-0.159-0.781-0.439-1.061c-0.278-0.278-0.665-0.439-1.061-0.439H76.959c-0.396,0-0.783,0.161-1.062,0.439
	c-0.278,0.279-0.439,0.665-0.439,1.061v4.269c0,0.396,0.161,0.782,0.441,1.061C76.176,137.822,76.563,137.982,76.959,137.982z"/>
<path fill="#FFFFFF" d="M141.474,178.228H76.959c-0.396,0-0.783,0.161-1.062,0.438c-0.278,0.28-0.439,0.667-0.439,1.063v4.267
	c0,0.396,0.162,0.782,0.441,1.06c0.28,0.28,0.665,0.441,1.061,0.441h64.515c0.394,0,0.781-0.161,1.061-0.441
	c0.279-0.277,0.439-0.664,0.439-1.06v-4.267c0-0.396-0.16-0.783-0.439-1.063C142.255,178.389,141.868,178.228,141.474,178.228z"/>
<path fill="#FFFFFF" d="M76.958,173.618h64.515c0.396,0,0.782-0.159,1.061-0.438c0.279-0.279,0.438-0.666,0.438-1.062v-4.272
	c0-0.396-0.159-0.78-0.438-1.059c-0.279-0.282-0.666-0.441-1.061-0.441H76.958c-0.395,0-0.782,0.159-1.061,0.441
	c-0.279,0.278-0.44,0.663-0.44,1.059v4.272c0,0.396,0.161,0.782,0.44,1.062S76.563,173.618,76.958,173.618z"/>
<path fill="#FFFFFF" d="M141.474,154.472H76.959c-0.396,0-0.783,0.161-1.062,0.44c-0.279,0.278-0.44,0.665-0.44,1.06v4.269
	c0,0.395,0.161,0.782,0.44,1.062c0.279,0.278,0.665,0.439,1.062,0.439h64.515c0.395,0,0.781-0.161,1.06-0.439
	c0.279-0.279,0.44-0.667,0.44-1.062v-4.269c0-0.395-0.161-0.781-0.44-1.06C142.255,154.633,141.869,154.472,141.474,154.472z"/>
<path fill="#FFFFFF" d="M76.958,126.105h64.516c0.401,0,0.777-0.156,1.061-0.439c0.281-0.284,0.438-0.66,0.438-1.061v-4.269
	c0-0.395-0.159-0.781-0.438-1.061c-0.28-0.28-0.667-0.44-1.061-0.44H76.958c-0.395,0-0.781,0.16-1.061,0.44
	c-0.279,0.28-0.438,0.664-0.438,1.061v4.269c0,0.397,0.161,0.783,0.438,1.061C76.176,125.945,76.563,126.105,76.958,126.105z"/>
<path fill="#FFFFFF" d="M148.981,78.635h87.288c0.395,0,0.781-0.16,1.059-0.439c0.28-0.278,0.439-0.665,0.439-1.059v-4.269
	c0-0.396-0.159-0.781-0.439-1.061c-0.278-0.28-0.665-0.439-1.059-0.439h-87.288c-0.395,0-0.781,0.159-1.061,0.439
	c-0.28,0.278-0.439,0.665-0.439,1.061v4.269c0,0.395,0.162,0.781,0.439,1.059C148.2,78.475,148.586,78.635,148.981,78.635z"/>
<path fill="#FFFFFF" d="M148.981,66.757h87.288c0.395,0,0.781-0.159,1.059-0.439c0.28-0.278,0.439-0.666,0.439-1.061v-4.27
	c0-0.394-0.159-0.781-0.439-1.061c-0.278-0.28-0.665-0.439-1.059-0.439h-87.288c-0.395,0-0.781,0.159-1.061,0.439
	c-0.28,0.28-0.439,0.667-0.439,1.061v4.27c0,0.396,0.162,0.783,0.439,1.061C148.2,66.598,148.586,66.757,148.981,66.757z"/>
<path fill="#FFFFFF" d="M148.981,54.88h87.288c0.395,0,0.781-0.159,1.059-0.439c0.28-0.28,0.439-0.667,0.439-1.061v-4.27
	c0-0.396-0.159-0.783-0.439-1.061c-0.278-0.28-0.665-0.441-1.059-0.441h-87.288c-0.395,0-0.781,0.161-1.061,0.439
	c-0.28,0.28-0.439,0.666-0.439,1.062v4.27c0,0.394,0.162,0.781,0.439,1.061C148.2,54.721,148.586,54.88,148.981,54.88z"/>
<path fill="#FFFFFF" d="M157.087,42.957h71.077c0.394,0,0.782-0.159,1.06-0.439c0.28-0.28,0.441-0.666,0.441-1.06v-4.271
	c0-0.395-0.161-0.78-0.441-1.06c-0.278-0.28-0.666-0.439-1.06-0.439h-71.077c-0.396,0-0.782,0.159-1.062,0.439
	s-0.439,0.666-0.439,1.06v4.271c0,0.394,0.161,0.78,0.439,1.06C156.306,42.797,156.691,42.957,157.087,42.957z"/>
<path fill="#FFFFFF" d="M148.982,126.148h87.285c0.395,0,0.781-0.158,1.061-0.438s0.44-0.666,0.44-1.061v-4.271
	c0-0.395-0.16-0.782-0.44-1.061c-0.28-0.278-0.667-0.438-1.061-0.438h-87.285c-0.397,0-0.784,0.158-1.062,0.438
	c-0.279,0.279-0.44,0.666-0.44,1.061v4.271c0,0.395,0.161,0.782,0.44,1.061C148.201,125.99,148.585,126.148,148.982,126.148z"/>
<path fill="#FFFFFF" d="M236.268,107h-87.286c-0.396,0-0.782,0.16-1.062,0.439s-0.439,0.667-0.439,1.062v4.269
	c0,0.395,0.16,0.783,0.439,1.062c0.279,0.279,0.665,0.439,1.062,0.439h87.286c0.394,0,0.782-0.16,1.062-0.439
	c0.279-0.279,0.439-0.667,0.439-1.062v-4.269c0-0.395-0.16-0.78-0.439-1.06S236.664,107,236.268,107z"/>
<path fill="#FFFFFF" d="M148.98,102.391h87.289c0.394,0,0.781-0.16,1.06-0.438s0.438-0.667,0.438-1.06v-4.271
	c0-0.394-0.16-0.781-0.438-1.06s-0.667-0.44-1.06-0.44H148.98c-0.396,0-0.781,0.162-1.06,0.44s-0.439,0.665-0.439,1.06v4.271
	c0,0.396,0.16,0.781,0.439,1.06S148.587,102.391,148.98,102.391z"/>
<path fill="#FFFFFF" d="M236.268,83.243h-87.286c-0.396,0-0.782,0.162-1.063,0.44c-0.278,0.278-0.438,0.665-0.438,1.061v4.271
	c0,0.395,0.16,0.78,0.44,1.061c0.278,0.278,0.665,0.44,1.061,0.44h87.286c0.396,0,0.782-0.162,1.061-0.44
	c0.279-0.28,0.44-0.666,0.44-1.061v-4.271c0-0.396-0.162-0.78-0.44-1.061C237.05,83.405,236.664,83.243,236.268,83.243z"/>
<path fill="#FFFFFF" d="M236.268,130.758h-87.287c-0.395,0-0.782,0.162-1.061,0.44c-0.28,0.28-0.44,0.665-0.44,1.061v4.269
	c0,0.396,0.161,0.781,0.44,1.061c0.278,0.28,0.666,0.441,1.061,0.441h87.287c0.395,0,0.782-0.161,1.06-0.441
	c0.28-0.279,0.441-0.665,0.441-1.061v-4.269c0-0.396-0.161-0.78-0.441-1.061C237.05,130.92,236.663,130.758,236.268,130.758z"/>
<path fill="#FFFFFF" d="M148.981,173.661h87.287c0.401,0,0.778-0.157,1.061-0.44s0.438-0.659,0.438-1.061v-4.267
	c0-0.396-0.159-0.782-0.438-1.062s-0.666-0.44-1.061-0.44h-87.287c-0.395,0-0.782,0.161-1.061,0.44
	c-0.279,0.279-0.438,0.666-0.438,1.062v4.267c0,0.395,0.159,0.781,0.438,1.061C148.199,173.5,148.586,173.661,148.981,173.661z"/>
<path fill="#FFFFFF" d="M236.269,154.515h-87.287c-0.397,0-0.783,0.161-1.062,0.44c-0.279,0.278-0.439,0.665-0.439,1.06v4.269
	c0,0.395,0.161,0.782,0.439,1.062c0.279,0.278,0.665,0.439,1.062,0.439h87.287c0.395,0,0.781-0.161,1.06-0.439
	c0.279-0.279,0.44-0.667,0.44-1.062v-4.269c0-0.395-0.161-0.781-0.44-1.06C237.05,154.676,236.664,154.515,236.269,154.515z"/>
<path fill="#FFFFFF" d="M236.268,178.273h-87.286c-0.396,0-0.783,0.16-1.062,0.439c-0.277,0.279-0.439,0.665-0.439,1.061v4.265
	c0,0.396,0.162,0.783,0.441,1.061c0.278,0.279,0.665,0.44,1.061,0.44h87.286c0.396,0,0.781-0.161,1.061-0.44
	c0.28-0.277,0.439-0.665,0.439-1.061v-4.265c0-0.396-0.159-0.781-0.439-1.061S236.664,178.273,236.268,178.273z"/>
<path fill="#FFFFFF" d="M236.269,149.906c0.394,0,0.781-0.16,1.06-0.441c0.278-0.278,0.439-0.664,0.439-1.06v-4.269
	c0-0.395-0.161-0.78-0.439-1.061c-0.279-0.278-0.667-0.439-1.06-0.439h-87.287c-0.396,0-0.784,0.161-1.062,0.439
	c-0.278,0.28-0.439,0.666-0.439,1.061v4.269c0,0.396,0.161,0.781,0.439,1.06c0.281,0.281,0.666,0.441,1.062,0.441H236.269z"/>
<path fill="#FFFFFF" d="M51.607,209.985c1.187-2.242,2.177-4.026,4.882-4.026c0.921,0,2.046,0.197,2.771,1.121
	c0.462,0.594,0.793,1.388,0.99,3.43l2.97,34.178c0.066,0.728,0.197,1.784,0.197,2.442c0,1.519-0.99,2.508-3.498,2.508
	c-2.508,0-3.629-0.989-3.76-2.97l-2.046-27.444l-12.206,24.277c-0.924,1.914-1.518,3.298-3.695,3.298
	c-1.98,0-2.639-1.317-3.563-3.298l-12.075-24.346l-2.308,27.513c-0.131,1.918-1.056,2.97-3.695,2.97
	c-2.374,0-3.364-0.924-3.364-2.639c0-0.462,0.065-1.19,0.197-2.111l3.232-34.509c0.134-1.318,0.331-2.636,1.19-3.43
	c0.525-0.527,1.449-0.99,2.836-0.99c2.705,0,3.629,1.584,4.882,4.026l12.934,25.86L51.607,209.985L51.607,209.985z"/>
<path fill="#FFFFFF" d="M102.213,240.53c2.308-2.836,2.308-6.53,2.308-9.366V210.12c0-1.256,0-2.181,0.531-2.908
	c0.593-0.722,1.58-1.121,3.098-1.121c1.518,0,2.508,0.399,3.102,1.121c0.527,0.728,0.527,1.652,0.527,2.908v20.582
	c0,4.156,0,9.566-3.892,13.985c-2.904,3.367-7.521,5.409-14.517,5.409c-7.39,0-11.744-2.242-14.514-5.409
	c-3.895-4.419-3.895-9.301-3.895-13.985V210.12c0-1.256,0-2.181,0.531-2.908c0.593-0.722,1.58-1.121,3.167-1.121
	c1.515,0,2.504,0.399,3.098,1.121c0.528,0.728,0.528,1.652,0.528,2.908v21.044c0,2.836,0,6.53,2.311,9.366
	c1.846,2.181,4.816,3.367,8.842,3.367C97.463,243.897,100.368,242.711,102.213,240.53L102.213,240.53z"/>
<path fill="#FFFFFF" d="M140.883,226.148c3.76,2.311,6.862,5.74,6.862,11.28c0,8.118-6.6,12.537-13.989,12.537
	c-2.967,0-6.596-0.79-9.17-2.242c-1.783-0.99-3.167-2.377-3.167-3.961c0-1.583,1.252-3.494,2.967-3.494
	c2.246,0,4.292,3.494,9.173,3.494c3.957,0,6.861-2.242,6.861-6.002c0-3.695-2.773-5.538-5.544-6.993
	c-3.891-2.043-12.402-5.082-12.402-13.527c0-6.927,5.672-11.547,13.393-11.547c5.609,0,11.019,2.574,11.019,5.479
	c0,1.449-1.318,3.433-3.036,3.433c-2.046,0-4.092-2.708-8.049-2.708c-3.629,0-6.003,2.046-6.003,4.95
	C129.798,221.663,136.329,223.378,140.883,226.148L140.883,226.148z"/>
<path fill="#FFFFFF" d="M164.963,245.547c0,1.252,0,2.242-0.528,2.967c-0.593,0.728-1.583,1.124-3.098,1.124
	c-1.587,0-2.574-0.396-3.167-1.124c-0.531-0.725-0.531-1.715-0.531-2.967V210.12c0-1.256,0-2.181,0.531-2.908
	c0.593-0.722,1.58-1.121,3.167-1.121c1.515,0,2.504,0.399,3.098,1.121c0.528,0.728,0.528,1.652,0.528,2.908V245.547L164.963,245.547
	z"/>
<path fill="#FFFFFF" d="M196.964,243.566c2.177,0,4.288-0.462,6.203-1.252c2.572-1.056,3.629-2.108,4.882-2.108
	c1.849,0,2.903,2.174,2.903,3.557c0,1.388-1.054,2.443-2.643,3.437c-3.098,1.911-7.453,2.832-11.476,2.832
	c-11.481,0-21.707-7.521-21.707-22.428c0-14.913,10.291-21.976,21.707-21.976c4.289,0,8.445,0.993,11.476,2.84
	c1.72,1.055,2.643,2.042,2.643,3.429s-1.054,3.695-2.903,3.695c-1.252,0-2.508-1.056-5.083-2.108
	c-1.91-0.793-3.824-1.391-6.398-1.391c-6.927,0-13.92,4.292-13.92,15.308C182.647,238.419,189.64,243.566,196.964,243.566
	L196.964,243.566z"/>
<path fill="#FFFFFF" d="M257.404,243.566c2.178,0,4.288-0.462,6.205-1.252c2.572-1.056,3.629-2.108,4.881-2.108
	c1.849,0,2.903,2.174,2.903,3.557c0,1.388-1.054,2.443-2.641,3.437c-3.1,1.911-7.457,2.832-11.478,2.832
	c-11.483,0-21.708-7.521-21.708-22.428c0-14.913,10.292-21.976,21.708-21.976c4.287,0,8.445,0.993,11.478,2.84
	c1.718,1.055,2.641,2.042,2.641,3.429s-1.054,3.695-2.903,3.695c-1.252,0-2.508-1.056-5.083-2.108
	c-1.91-0.793-3.825-1.391-6.398-1.391c-6.926,0-13.922,4.292-13.922,15.308C243.087,238.419,250.083,243.566,257.404,243.566
	L257.404,243.566z"/>
<path fill="#FFFFFF" d="M288.614,245.547c0,1.252,0,2.242-0.529,2.967c-0.592,0.728-1.584,1.124-3.097,1.124
	c-1.589,0-2.575-0.396-3.167-1.124c-0.533-0.725-0.533-1.715-0.533-2.967V210.12c0-1.256,0-2.181,0.533-2.908
	c0.592-0.722,1.578-1.121,3.167-1.121c1.513,0,2.505,0.399,3.097,1.121c0.529,0.728,0.529,1.652,0.529,2.908V245.547
	L288.614,245.547z"/>
<path fill="#FFFFFF" d="M318.106,245.547c0,1.252,0,2.177-0.527,2.904c-0.594,0.725-1.715,1.187-3.102,1.187
	c-1.449,0-2.574-0.462-3.168-1.187c-0.527-0.728-0.527-1.652-0.527-2.904v-32.529h-10.16c-1.121,0-1.91,0-2.639-0.527
	c-0.658-0.463-1.121-1.318-1.121-2.705s0.463-2.174,1.121-2.639c0.729-0.525,1.518-0.594,2.639-0.594h27.713
	c1.057,0,1.846,0.068,2.57,0.594c0.662,0.465,1.125,1.252,1.125,2.639s-0.463,2.242-1.125,2.705
	c-0.725,0.527-1.514,0.527-2.57,0.527h-10.229V245.547L318.106,245.547z"/>
<path fill="#FFFFFF" d="M364.296,209.389c1.123-1.911,2.043-3.298,5.213-3.298c2.443,0,3.299,0.858,3.299,2.045
	c0,0.859-0.465,1.649-1.188,2.771l-13.92,21.973v12.668c0,1.252-0.068,2.242-0.596,2.967c-0.594,0.728-1.516,1.124-3.1,1.124
	c-1.52,0-2.51-0.396-3.102-1.124c-0.527-0.725-0.527-1.649-0.527-2.901v-12.733l-13.461-21.77c-0.725-1.255-1.188-2.049-1.188-2.907
	c0-1.318,1.188-2.111,3.631-2.111c2.969,0,4.021,1.187,5.277,3.363l9.633,16.562L364.296,209.389L364.296,209.389z"/>
<path fill="#FFFFFF" d="M418.069,243.566c2.178,0,4.289-0.462,6.203-1.252c2.574-1.056,3.629-2.108,4.879-2.108
	c1.852,0,2.908,2.174,2.908,3.557c0,1.388-1.057,2.443-2.646,3.437c-3.094,1.911-7.451,2.832-11.475,2.832
	c-11.48,0-21.707-7.521-21.707-22.428c0-14.913,10.291-21.976,21.707-21.976c4.289,0,8.445,0.993,11.475,2.84
	c1.721,1.055,2.646,2.042,2.646,3.429s-1.057,3.695-2.908,3.695c-1.25,0-2.504-1.056-5.078-2.108
	c-1.912-0.793-3.826-1.391-6.402-1.391c-6.926,0-13.918,4.292-13.918,15.308C403.753,238.419,410.745,243.566,418.069,243.566
	L418.069,243.566z"/>
<path fill="#FFFFFF" d="M460.696,243.963c9.105,0,14.648-5.937,14.648-16.034c0-10.292-5.676-16.229-14.779-16.229
	c-9.107,0-14.652,5.937-14.652,16.031C445.913,238.026,451.593,243.963,460.696,243.963L460.696,243.963z M460.759,205.5
	c13.531,0,22.104,9.498,22.104,22.231c0,12.999-8.838,22.435-22.365,22.435c-13.523,0-22.1-9.501-22.1-22.237
	C438.397,214.933,447.235,205.5,460.759,205.5L460.759,205.5z"/>
<path fill="#FFFFFF" d="M500.284,243.17c0,0,1.98,0.266,5.016,0.266c5.537,0,18.078-0.794,18.078-15.438
	c0-6.266-2.309-10.229-5.281-12.537c-2.969-2.311-6.793-3.167-12.203-3.167c-3.564,0-5.609,0.397-5.609,0.397V243.17L500.284,243.17
	z M522.257,245.347c-5.148,3.367-11.613,4.291-18.209,4.291c-3.764,0-6.996-0.331-8.842-0.989c-1.914-0.663-2.246-1.784-2.246-3.961
	v-33.578c0-2.511,0.596-3.698,3.697-4.36c1.979-0.39,5.145-0.658,8.971-0.658c6.596,0,12.537,0.924,17.223,4.156
	c4.484,3.105,8.047,8.577,8.047,17.356C530.897,237.036,526.741,242.38,522.257,245.347L522.257,245.347z"/>
<path fill="#FFFFFF" d="M548.187,223.178h9.176c1.055,0,1.846,0.069,2.566,0.597c0.666,0.459,1.121,1.252,1.121,2.639
	c0,1.384-0.455,2.243-1.121,2.705c-0.721,0.528-1.512,0.528-2.566,0.528h-9.176v13.13h13.33c1.055,0,1.848,0.065,2.572,0.594
	c0.662,0.465,1.121,1.252,1.121,2.639c0,1.384-0.459,2.242-1.121,2.705c-0.725,0.527-1.518,0.527-2.572,0.527h-17.023
	c-2.639,0-3.498-1.056-3.498-3.498v-35.692c0-2.573,0.99-3.498,3.498-3.498h15.305c1.059,0,1.852,0.068,2.576,0.594
	c0.66,0.465,1.121,1.252,1.121,2.639s-0.461,2.242-1.121,2.705c-0.725,0.527-1.518,0.527-2.576,0.527h-11.611V223.178
	L548.187,223.178z"/>
</svg>
